<svg xmlns="http://www.w3.org/2000/svg" viewBox="0 0 511.999 511.999" fill="#fff"><path d="M506.175 365.576c-4.095-10.258-15.73-15.255-25.987-11.16s-15.255 15.73-11.16 25.987c5.206 13.043 3.5 27.935-4.567 39.84s-21 18.74-35.45 18.74H83.068c-15.77 0-29.776-8.23-37.465-22.015-7.7-13.8-7.34-30.082.968-43.533L219.543 93.382c7.876-12.752 21.52-20.365 36.497-20.365s28.62 7.613 36.497 20.365l127.927 207.124a20 20 0 0 0 34.028-21.018L326.564 72.364c-15.216-24.636-41.58-39.344-70.525-39.344s-55.3 14.7-70.525 39.344L12.542 352.418c-16.036 25.966-16.734 57.38-1.87 84.033 14.853 26.63 41.916 42.528 72.395 42.528H429.01c27.938 0 52.927-13.233 68.56-36.303 15.516-22.898 18.73-51.72 8.603-77.1zm-250.125 34.41c11.045 0 19.998-8.953 19.998-19.998s-8.953-19.998-19.998-19.998h-.01c-11.045 0-19.993 8.953-19.993 19.998s8.958 19.998 20.003 19.998zm19.988-89.992V163.008c0-11.045-8.953-19.998-19.998-19.998s-19.998 8.953-19.998 19.998v146.987c0 11.045 8.953 19.998 19.998 19.998s19.998-8.953 19.998-19.998z"/></svg>