<svg xmlns="http://www.w3.org/2000/svg" viewBox="0 0 512 512" fill="#fff"><path d="M437.02 74.98C388.667 26.628 324.38 0 256 0S123.333 26.628 74.98 74.98 0 187.62 0 256s26.63 132.667 74.98 181.02S187.62 512 256 512c46.8 0 92.615-12.757 132.46-36.893 9.448-5.722 12.468-18.02 6.745-27.468s-18.024-12.47-27.468-6.745C334.14 461.244 295.502 472 256 472c-119.103 0-216-96.897-216-216S136.897 40 256 40s216 96.897 216 216c0 42.588-12.665 84.044-36.627 119.885-6.138 9.182-3.67 21.603 5.512 27.742s21.602 3.67 27.742-5.5C497.002 355.672 512 306.53 512 256c0-68.38-26.63-132.668-74.98-181.02zM168 191c5.514 0 10 4.486 10 10 0 11.046 8.954 20 20 20s20-8.954 20-20c0-27.57-22.43-50-50-50s-50 22.43-50 50c0 11.046 8.954 20 20 20s20-8.954 20-20c0-5.515 4.487-10 10-10zm173 90.943c-6.34 0-11.98 2.96-15.646 7.562C322.08 293.094 298.667 317 256 317c-43.36 0-66.67-24.492-69.43-27.573-3.666-4.558-9.282-7.482-15.587-7.482-11.047 0-20.003 8.956-20.003 20.003 0 4.858 1.735 9.3 4.615 12.775l-.016.013c.9 1.1 13.133 17.994 39.973 30.085l.508 34.074c.488 32.777 27.3 59.106 59.98 59.106l.907-.007c33.08-.493 59.592-27.807 59.1-60.915l-.52-32.073c27.13-12.087 39.937-29.115 40.855-30.22l-.027-.023c2.902-3.472 4.652-7.94 4.652-12.817 0-11.047-8.956-20.003-20.004-20.003zM270.403 391.93a19.87 19.87 0 0 1-14.053 6.068c-10.98.146-20.133-8.673-20.296-19.7l-.335-22.502c6.34.773 13.095 1.204 20.28 1.204a163.33 163.33 0 0 0 19.695-1.167l.354 21.87a19.86 19.86 0 0 1-5.646 14.228zM395 201c0-11.046-8.954-20-20-20h-60c-11.046 0-20 8.954-20 20s8.954 20 20 20h60c11.046 0 20-8.955 20-20z"/></svg>