<svg xmlns="http://www.w3.org/2000/svg" viewBox="0 0 512.001 512.001" fill="#fff"><path d="M506.143 165.858l-160-160a20 20 0 0 0-28.284 0c-9.26 9.26-13.754 25.76-20.558 50.735-7.977 29.283-18.9 69.388-38.1 88.597-12.397 12.397-39.128 13.456-67.43 14.577-36.565 1.448-78.008 3.09-105.903 30.984-7.81 7.81-7.81 20.474 0 28.284l90.35 90.35L5.937 477.78c-7.854 7.767-7.924 20.43-.157 28.284C9.693 510.02 14.846 512 20 512c5.08 0 10.165-1.925 14.063-5.78l170.43-168.55 88.473 88.473c3.905 3.905 9.023 5.858 14.142 5.858s10.237-1.953 14.142-5.858c25.027-25.027 28.8-60.683 30.4-92.14.554-11.032-7.94-20.424-18.97-20.978-11.024-.562-20.424 7.94-20.978 18.97-.974 19.373-2.902 35.706-7.838 48.464L131.56 208.17c17.202-6.67 39.76-7.562 61.784-8.434 34.743-1.376 70.667-2.798 94.13-26.26 26.725-26.725 39.264-72.757 48.42-106.368l3.23-11.7 117.47 117.47-11.7 3.23c-33.61 9.156-79.643 21.695-106.368 48.42-7.81 7.81-7.81 20.474 0 28.284s20.474 7.81 28.284 0c19.21-19.21 59.313-30.133 88.597-38.1 24.976-6.804 41.476-11.298 50.735-20.558a20 20 0 0 0 0-28.284z"/></svg>