<svg xmlns="http://www.w3.org/2000/svg" fill="#fff" viewBox="0 0 512 512.001"><path d="M512 236c0 45.45-14.04 89.578-40.602 127.613-6.324 9.06-18.793 11.273-27.848 4.95s-11.273-18.793-4.95-27.848C460.453 309.426 472 273.215 472 236c0-108.074-96.898-196-216-196S40 127.926 40 236c0 43.78 15.578 85.2 45.047 119.773 4.832 5.672 6.113 13.563 3.32 20.47L57 453.832l91.348-40.266a20 20 0 0 1 15.914-.094C193.082 425.766 223.945 432 256 432c36.89 0 73.3-8.586 105.285-24.832a20.01 20.01 0 0 1 26.891 8.773c5 9.852 1.074 21.887-8.773 26.89C341.828 461.914 299.156 472 256 472c-34.48 0-67.836-6.19-99.277-18.414L28.07 510.3c-2.598 1.145-5.344 1.7-8.066 1.7a19.98 19.98 0 0 1-13.922-5.641c-5.848-5.664-7.672-14.31-4.62-21.855l45.4-112.332C16.164 332.254 0 285.426 0 236c0-63.375 26.855-122.855 75.62-167.488C123.89 24.332 187.953 0 256 0s132.11 24.332 180.38 68.512C485.145 113.145 512 172.625 512 236zm-252-80c30.88 0 56 25.12 56 56v50c0 30.88-25.12 56-56 56s-56-25.12-56-56v-50c0-30.88 25.12-56 56-56zm0 40c-8.82 0-16 7.18-16 16v50c0 8.82 7.18 16 16 16s16-7.18 16-16v-50c0-8.82-7.176-16-16-16zm-125.72 82h-19.57c-1.21 0-1.7-.105-2.84-1.37-7.383-8.215-20.03-8.887-28.242-1.5a20 20 0 0 0-1.5 28.242C90.734 312.94 102 318 114.71 318h19.57c29.004 0 51.72-21.96 51.72-50 0-28.12-23.2-51-51.72-51H128c-5.297 0-11-3.13-11-10 0-6.27 4.73-11 11-11h5.426c2.73 0 4.852 1.395 5.668 2.688 5.902 9.336 18.258 12.12 27.594 6.22s12.12-18.254 6.22-27.594C164.598 164.168 149.47 156 133.426 156H128c-13.687 0-26.512 5.28-36.11 14.875S77 193.3 77 207c0 28.04 22.402 50 51 50h6.28c6.46 0 11.72 4.934 11.72 11 0 6.496-6.035 10-11.72 10zm255 0h-19.57c-1.21 0-1.7-.105-2.84-1.37-7.383-8.215-20.03-8.887-28.242-1.5s-8.887 20.03-1.5 28.242C345.734 312.94 357 318 369.71 318h19.57c29.004 0 51.72-21.96 51.72-50 0-28.12-23.2-51-51.72-51H383c-5.297 0-11-3.13-11-10 0-6.27 4.73-11 11-11h5.426c2.73 0 4.852 1.395 5.668 2.688 5.902 9.336 18.258 12.12 27.594 6.22s12.12-18.254 6.22-27.594C419.598 164.168 404.47 156 388.426 156H383c-13.687 0-26.512 5.28-36.11 14.875S332 193.3 332 207c0 28.04 22.402 50 51 50h6.28c6.46 0 11.72 4.934 11.72 11 0 6.496-6.035 10-11.72 10zm0 0"/></svg>