<svg xmlns="http://www.w3.org/2000/svg" viewBox="0 0 512 512" fill="#fff"><path d="M509.152 193.752c-7.55-23.237-28.12-38.253-52.402-38.253H354.447c-6.784 0-12.435-3.905-14.387-9.913l-31.625-97.963C300.915 24.48 280.334 9.527 256 9.527S211.086 24.48 203.555 47.66l-31.602 97.89c-1.964 6.044-7.615 9.95-14.4 9.95H55.25c-24.282 0-44.852 15.015-52.402 38.253-7.58 23.328.27 47.663 19.996 61.995L105.6 315.88a15.1 15.1 0 0 1 5.499 16.926l-31.614 97.297c-7.52 23.143.342 47.338 20.028 61.64 9.843 7.152 21.124 10.727 32.405 10.727s22.564-3.575 32.406-10.727L247.1 431.6a15.1 15.1 0 0 1 17.797.001l82.766 60.133c19.686 14.302 45.126 14.304 64.81 0s27.548-38.497 20.028-61.64l-21.642-66.608a20 20 0 0 0-25.196-12.839 20 20 0 0 0-12.839 25.197l21.64 66.608c3.154 9.707-3.412 15.4-5.5 16.928s-9.54 6-17.797-.001l-82.766-60.132a54.99 54.99 0 0 0-64.811-.001l-82.766 60.133c-8.258 6-15.71 1.517-17.798.001s-8.653-7.22-5.5-16.928l31.614-97.297a54.99 54.99 0 0 0-20.027-61.639L46.35 223.392c-8.32-6.044-6.29-14.755-5.468-17.28.8-2.492 4.238-10.62 14.367-10.62h102.304c24.058 0 45.13-15.103 52.446-37.62l31.602-97.9c3.154-9.708 11.82-10.462 14.4-10.462s11.245.754 14.387 10.426l31.626 97.962c7.305 22.48 28.375 37.583 52.434 37.583H456.75c10.13 0 13.557 8.127 14.367 10.62.82 2.526 2.852 11.237-5.468 17.28l-56.435 41.003c-8.934 6.493-10.915 18.996-4.423 27.932s18.995 10.913 27.93 4.424l56.435-41.003c19.727-14.333 27.576-38.667 19.996-61.996z"/></svg>