<svg xmlns="http://www.w3.org/2000/svg" xmlns:xlink="http://www.w3.org/1999/xlink" viewBox="0 0 512 512" fill="#fff"><path d="M437.02 74.98C388.667 26.63 324.38 0 256 0S123.333 26.63 74.98 74.98 0 187.62 0 256s26.63 132.667 74.98 181.02S187.62 512 256 512c46.812 0 92.616-12.757 132.462-36.893 9.447-5.722 12.467-18.02 6.744-27.468s-18.022-12.468-27.47-6.745C334.143 461.244 295.504 472 256 472c-119.103 0-216-96.897-216-216S136.897 40 256 40s216 96.897 216 216c0 42.6-12.665 84.044-36.626 119.885a20.01 20.01 0 0 0 5.5 27.742c9.172 6.14 21.604 3.67 27.742-5.5C497.002 355.674 512 306.53 512 256c0-68.38-26.63-132.667-74.98-181.02zM316 303H196c-11.046 0-20 8.954-20 20s8.954 20 20 20h120c11.046 0 20-8.954 20-20s-8.954-20-20-20z"/><use xlink:href="#B"/><use xlink:href="#B" x="-177"/><defs ><path id="B" d="M345 151c-27.57 0-50 22.43-50 50 0 11.046 8.954 20 20 20s20-8.954 20-20c0-5.514 4.486-10 10-10s10 4.486 10 10c0 11.046 8.954 20 20 20s20-8.954 20-20c0-27.57-22.43-50-50-50z"/></defs></svg>