<?xml version="1.0" standalone="no"?>
<!DOCTYPE svg PUBLIC "-//W3C//DTD SVG 20010904//EN"
 "http://www.w3.org/TR/2001/REC-SVG-20010904/DTD/svg10.dtd">
<svg version="1.0" xmlns="http://www.w3.org/2000/svg"
 width="856.000000pt" height="856.000000pt" viewBox="0 0 856.000000 856.000000"
 preserveAspectRatio="xMidYMid meet">
<metadata>
Created by potrace 1.14, written by Peter Selinger 2001-2017
</metadata>
<g transform="translate(0.000000,856.000000) scale(0.100000,-0.100000)"
fill="#000000" stroke="none">
<path d="M3937 7978 c-15 -5 -677 -381 -1470 -834 -1017 -582 -1451 -835
-1473 -860 -18 -19 -37 -55 -43 -79 -15 -61 -16 -3393 0 -3449 6 -21 27 -56
47 -77 33 -33 262 -171 692 -415 121 -68 1496 -864 1765 -1021 99 -58 250
-146 335 -195 l155 -89 65 3 c64 3 72 7 353 168 298 171 370 221 393 277 18
42 18 115 0 156 -28 68 135 -30 -2046 1230 -371 214 -686 399 -698 411 -13 12
-34 39 -45 61 l-22 40 0 1170 c0 1106 1 1172 18 1206 10 20 30 48 45 62 15 14
227 141 472 282 1513 873 1451 838 1499 843 29 2 61 -2 85 -12 21 -9 273 -152
559 -318 287 -166 745 -431 1017 -589 473 -274 496 -288 525 -334 l30 -48 3
-1126 2 -1125 -25 -52 c-16 -32 -39 -61 -63 -76 -20 -14 -298 -175 -617 -358
-319 -183 -598 -345 -620 -359 -62 -41 -86 -92 -83 -172 6 -112 13 -119 343
-317 286 -171 288 -172 347 -172 38 0 72 7 97 19 21 11 272 154 557 318 285
164 536 307 557 318 21 11 126 72 235 135 178 104 199 120 226 163 l30 48 -3
1637 c-1 900 -4 1653 -8 1672 -8 47 -25 79 -60 112 -15 14 -363 217 -773 451
-410 233 -1082 617 -1495 852 -412 236 -766 434 -785 441 -42 16 -85 16 -123
2z"/>
<path d="M3925 6481 c-87 -40 -1562 -905 -1593 -934 -64 -62 -63 -32 -60
-1073 l3 -939 27 -47 c34 -57 -53 -4 973 -589 776 -441 834 -473 886 -477 44
-3 65 1 100 18 24 12 294 169 599 348 305 179 638 374 740 434 193 113 229
140 258 192 16 29 17 97 17 877 l0 846 -30 48 c-42 67 -100 98 -177 93 -62 -5
20 40 -948 -516 -490 -281 -479 -274 -511 -320 -22 -33 -24 -48 -30 -201 -7
-186 -15 -218 -72 -268 -85 -75 -152 -70 -319 23 -260 144 -285 161 -315 212
l-28 47 0 255 c0 279 1 285 62 341 15 15 336 205 713 423 500 290 695 408 722
437 69 75 68 194 -3 265 -29 28 -642 392 -827 490 -73 39 -126 43 -187 15z"/>
</g>
</svg>
